<?xml version="1.0" encoding="UTF-8" standalone="no"?>
<svg
   width="512"
   height="512"
   viewBox="0 0 512 512"
   version="1.1"
   xml:space="preserve"
   id="SVGRoot"
   inkscape:version="1.2.2 (b0a8486541, 2022-12-01)"
   sodipodi:docname="logo.svg"
   inkscape:export-filename="../c8df1821/logo3.png"
   inkscape:export-xdpi="54.613335"
   inkscape:export-ydpi="54.613335"
   xmlns:inkscape="http://www.inkscape.org/namespaces/inkscape"
   xmlns:sodipodi="http://sodipodi.sourceforge.net/DTD/sodipodi-0.dtd"
   xmlns="http://www.w3.org/2000/svg"
   xmlns:svg="http://www.w3.org/2000/svg"><defs
   id="defs2"><rect
     x="113.55767"
     y="184.5312"
     width="414.80093"
     height="244.46443"
     id="rect1" /><rect
     x="127.75238"
     y="86.745445"
     width="627.72156"
     height="780.70898"
     id="rect5" /><rect
     x="193.99435"
     y="219.22939"
     width="334.36426"
     height="411.64655"
     id="rect4" /></defs>
<sodipodi:namedview
   pagecolor="#a9a9a9"
   bordercolor="#292929"
   borderopacity="1"
   inkscape:showpageshadow="2"
   inkscape:pageopacity="0.0"
   inkscape:pagecheckerboard="0"
   inkscape:deskcolor="#232323"
   id="namedview1"
   inkscape:zoom="0.63403908"
   inkscape:cx="475.52274"
   inkscape:cy="473.94555"
   inkscape:window-width="1920"
   inkscape:window-height="1008"
   inkscape:window-x="0"
   inkscape:window-y="0"
   inkscape:window-maximized="1"
   inkscape:current-layer="SVGRoot"
   inkscape:export-bgcolor="#000000ff"
   showgrid="false" />
<style
   type="text/css"
   id="style1">
g.prefab path {
  vector-effect:non-scaling-stroke;
  -inkscape-stroke:hairline;
  fill: none;
  fill-opacity: 1;
  stroke-opacity: 1;
  stroke: #00349c;
}
</style>

<path
   style="fill:#ffffff;stroke-width:1.55439"
   id="path270"
   d="m 233.32096,478.48248 c 6.79787,-32.39451 17.33419,-64.0914 31.23475,-94.14327 5.36208,-11.59239 11.50285,-22.80847 17.25428,-34.21271 22.60216,-39.34815 49.89865,-75.86397 83.11606,-106.94844 26.87643,-25.15068 45.07431,-36.6798 74.60841,-57.68642 0,0 -15.57771,-9.89634 -15.57771,-9.89634 v 0 c -27.62372,20.0926 -49.24437,34.62125 -74.52171,58.14042 -33.45202,31.12523 -61.12795,67.6214 -84.31013,106.86446 -5.95834,11.33984 -12.27162,22.50018 -17.87505,34.01955 -14.46357,29.73375 -25.57297,60.98845 -34.31421,92.83877 0,0 20.38531,11.02398 20.38531,11.02398 z" /><path
   style="fill:#ffffff;stroke-width:1.55439"
   id="path272"
   d="m 207.35973,472.65317 c -6.41879,-35.51205 -4.9795,-71.82268 -2.75184,-107.64468 4.73602,-54.73506 18.98829,-108.54738 43.5889,-157.79887 5.74976,-11.51128 12.53429,-22.47595 18.80143,-33.71392 29.02592,-45.90975 68.03953,-81.508668 113.79646,-110.285541 22.28679,-14.016307 33.74327,-18.857881 56.66503,-29.953733 0,0 -16.91216,-11.133074 -16.91216,-11.133074 v 0 C 398.29249,33.48497 386.33744,38.96428 364.64664,52.910645 319.00432,82.256942 279.63069,117.85455 250.3785,163.92717 c -6.35827,11.25549 -13.24098,22.23043 -19.07481,33.76647 -24.8915,49.22151 -39.59575,103.05347 -45.01576,157.82296 -0.63073,8.52661 -1.447,17.04151 -1.89215,25.57982 -1.41576,27.15514 -0.63212,54.42694 2.02564,81.47957 0,0 20.93831,10.07718 20.93831,10.07718 z" /><path
   style="fill:#ffffff;stroke-width:1.55439"
   id="path346"
   d="M 199.08105,445.72843 C 183.7191,404.92449 172.00279,362.88354 160.5826,320.84664 146.40331,266.2069 133.98376,210.97357 126.50514,154.97615 c -1.08687,-8.13823 -1.88194,-16.31277 -2.82292,-24.46913 -2.19713,-25.3275 -1.32506,-13.39313 -2.72386,-35.795098 0,0 -19.43287,-9.71798 -19.43287,-9.71798 v 0 c 2.0064,22.754558 0.84242,10.64299 3.57183,36.326978 8.33196,64.40316 21.53516,127.99959 37.49023,190.94003 10.8708,41.52436 22.07388,82.96895 35.64362,123.70863 0,0 20.84988,9.75885 20.84988,9.75885 z" /></svg>
