<?xml version="1.0" encoding="UTF-8" standalone="no"?>
<svg
   width="1024"
   height="512"
   viewBox="0 0 1024 512"
   version="1.1"
   xml:space="preserve"
   id="SVGRoot"
   inkscape:version="1.2.2 (b0a8486541, 2022-12-01)"
   sodipodi:docname="pattern.svg"
   inkscape:export-filename="../c8df1821/logo3.png"
   inkscape:export-xdpi="54.613335"
   inkscape:export-ydpi="54.613335"
   xmlns:inkscape="http://www.inkscape.org/namespaces/inkscape"
   xmlns:sodipodi="http://sodipodi.sourceforge.net/DTD/sodipodi-0.dtd"
   xmlns="http://www.w3.org/2000/svg"
   xmlns:svg="http://www.w3.org/2000/svg"><defs
   id="defs2"><rect
     x="113.55767"
     y="184.5312"
     width="414.80093"
     height="244.46443"
     id="rect1" /><rect
     x="127.75238"
     y="86.745445"
     width="627.72156"
     height="780.70898"
     id="rect5" /><rect
     x="193.99435"
     y="219.22939"
     width="334.36426"
     height="411.64655"
     id="rect4" /></defs>
<sodipodi:namedview
   pagecolor="#a9a9a9"
   bordercolor="#292929"
   borderopacity="1"
   inkscape:showpageshadow="2"
   inkscape:pageopacity="0.0"
   inkscape:pagecheckerboard="0"
   inkscape:deskcolor="#232323"
   id="namedview1"
   inkscape:zoom="0.63403908"
   inkscape:cx="500.75778"
   inkscape:cy="469.21398"
   inkscape:window-width="1920"
   inkscape:window-height="1008"
   inkscape:window-x="0"
   inkscape:window-y="0"
   inkscape:window-maximized="1"
   inkscape:current-layer="SVGRoot"
   inkscape:export-bgcolor="#000000ff"
   showgrid="false" />
<style
   type="text/css"
   id="style1">
g.prefab path {
  vector-effect:non-scaling-stroke;
  -inkscape-stroke:hairline;
  fill: none;
  fill-opacity: 1;
  stroke-opacity: 1;
  stroke: #00349c;
}
</style>

<path
   style="fill:#cccccc"
   id="path270"
   d="m 504.77118,385.9384 c 4.37333,-20.84062 11.15175,-41.23242 20.0945,-60.56593 3.44963,-7.45783 7.40022,-14.67356 11.10033,-22.01034 14.54083,-25.31415 32.10169,-48.80616 53.47171,-68.80398 17.29063,-16.18038 28.99801,-23.5975 47.99842,-37.11186 0,0 -10.02173,-6.36669 -10.02173,-6.36669 v 0 c -17.77139,12.92633 -31.68077,22.27316 -47.94264,37.40393 -21.52095,20.02405 -39.32593,43.50341 -54.2399,68.74996 -3.83323,7.29535 -7.8948,14.47522 -11.4997,21.88607 -9.30496,19.12884 -16.45206,39.23618 -22.07563,59.7267 0,0 13.11464,7.09214 13.11464,7.09214 z" /><path
   style="fill:#cccccc"
   id="path272"
   d="m 488.06934,382.18818 c -4.12945,-22.84625 -3.2035,-46.20625 -1.77036,-69.2519 3.04686,-35.21314 12.21588,-69.83264 28.04239,-101.51799 3.69904,-7.40564 8.06378,-14.45963 12.09567,-21.68944 18.67347,-29.53548 43.77241,-52.43762 73.20958,-70.95087 14.33793,-9.01722 21.70832,-12.13199 36.45475,-19.270373 0,0 -10.88023,-7.16233 -10.88023,-7.16233 v 0 c -14.31752,7.309361 -22.00866,10.834413 -35.96317,19.806633 -29.36343,18.87959 -54.69398,41.78088 -73.51302,71.42114 -4.09052,7.24108 -8.51843,14.30168 -12.27155,21.72325 -16.01365,31.66606 -25.47345,66.2982 -28.96035,101.53349 -0.40577,5.48549 -0.93091,10.96345 -1.21729,16.45647 -0.91081,17.46993 -0.40667,35.01491 1.30317,52.41889 0,0 13.47041,6.48303 13.47041,6.48303 z" /><path
   style="fill:#cccccc"
   id="path346"
   d="m 482.74335,364.86648 c -9.88292,-26.25072 -17.42047,-53.29726 -24.76751,-80.34119 -9.12207,-35.15181 -17.11204,-70.68551 -21.92332,-106.71077 -0.69923,-5.23563 -1.21073,-10.49462 -1.81609,-15.74192 -1.4135,-16.29414 -0.85246,-8.61631 -1.75236,-23.02834 0,0 -12.5019,-6.25195 -12.5019,-6.25195 v 0 c 1.29079,14.63888 0.54196,6.84704 2.29789,23.37053 5.36027,41.43299 13.85438,82.34698 24.11888,122.83895 6.9936,26.71419 14.20097,53.37707 22.93089,79.58645 0,0 13.41352,6.27824 13.41352,6.27824 z" /></svg>
